<svg width="74" height="86" viewBox="0 0 74 86" fill="none" xmlns="http://www.w3.org/2000/svg">
<g filter="url(#filter0_d_54_611)">
<mask id="mask0_54_611" style="mask-type:alpha" maskUnits="userSpaceOnUse" x="4" y="4" width="66" height="78">
<ellipse cx="37" cy="37.1636" rx="33" ry="33.1636" fill="url(#paint0_linear_54_611)"/>
<path d="M21.8751 59.6548C21.3974 59.6548 20.9865 59.9925 20.8939 60.4611C20.8014 60.9297 21.0532 61.3983 21.495 61.5798C24.8693 62.9661 28.5598 66.5135 31.6576 70.3934C34.7445 74.2596 37.0846 78.2536 37.8367 80.3394C37.9797 80.7359 38.3559 81.0002 38.7774 81.0002C39.1989 81.0002 39.5752 80.7359 39.7182 80.3394C40.4841 78.2151 42.6466 74.0202 45.5213 70.0798C46.9541 68.1158 48.5449 66.2415 50.2035 64.7307C51.8701 63.2125 53.5542 62.1082 55.1695 61.6104C55.6423 61.4647 55.9375 60.9951 55.8638 60.5059C55.7902 60.0166 55.3698 59.6548 54.875 59.6548L50.7242 59.6548H50.7226C42.7401 59.655 28.4956 59.6552 21.8751 59.6548Z" fill="#579E95" stroke="#4E8D85" stroke-width="2" stroke-linecap="round" stroke-linejoin="round"/>
</mask>
<g mask="url(#mask0_54_611)">
<rect x="-4.25" y="-18.1089" width="86.625" height="111.927" fill="url(#paint1_linear_54_611)"/>
</g>
</g>
<defs>
<filter id="filter0_d_54_611" x="0" y="0" width="74" height="86" filterUnits="userSpaceOnUse" color-interpolation-filters="sRGB">
<feFlood flood-opacity="0" result="BackgroundImageFix"/>
<feColorMatrix in="SourceAlpha" type="matrix" values="0 0 0 0 0 0 0 0 0 0 0 0 0 0 0 0 0 0 127 0" result="hardAlpha"/>
<feOffset/>
<feGaussianBlur stdDeviation="2"/>
<feComposite in2="hardAlpha" operator="out"/>
<feColorMatrix type="matrix" values="0 0 0 0 0 0 0 0 0 0 0 0 0 0 0 0 0 0 0.2 0"/>
<feBlend mode="normal" in2="BackgroundImageFix" result="effect1_dropShadow_54_611"/>
<feBlend mode="normal" in="SourceGraphic" in2="effect1_dropShadow_54_611" result="shape"/>
</filter>
<linearGradient id="paint0_linear_54_611" x1="37" y1="4" x2="37" y2="70.3273" gradientUnits="userSpaceOnUse">
<stop stop-color="#74C1A6"/>
<stop offset="1" stop-color="#559C94"/>
</linearGradient>
<linearGradient id="paint1_linear_54_611" x1="39.0625" y1="-18.1089" x2="39.0625" y2="93.8184" gradientUnits="userSpaceOnUse">
<stop stop-color="#74C1A6"/>
<stop offset="1" stop-color="#559C94"/>
</linearGradient>
</defs>
</svg>
